<mxfile host="app.diagrams.net" modified="2023-10-22T06:54:32.076Z" agent="Mozilla/5.0 (Macintosh; Intel Mac OS X 10_15_7) AppleWebKit/537.36 (KHTML, like Gecko) Chrome/118.0.0.0 Safari/537.36" etag="TiAPCSLNSFQsG6bNw96i" version="22.0.6" type="device" pages="2">
  <diagram id="1RoQhhKAnQT1FKXmjMtu" name="페이지-1">
    <mxGraphModel dx="1434" dy="765" grid="1" gridSize="10" guides="1" tooltips="1" connect="1" arrows="1" fold="1" page="1" pageScale="1" pageWidth="827" pageHeight="1169" math="0" shadow="0">
      <root>
        <mxCell id="0" />
        <mxCell id="1" parent="0" />
        <mxCell id="pqTl43sDfz-ucHtyQW6G-1" value="" style="rounded=0;html=1;jettySize=auto;orthogonalLoop=1;fontSize=11;endArrow=block;endFill=0;endSize=8;strokeWidth=1;shadow=0;labelBackgroundColor=none;edgeStyle=orthogonalEdgeStyle;" edge="1" parent="1" source="pqTl43sDfz-ucHtyQW6G-2" target="pqTl43sDfz-ucHtyQW6G-5">
          <mxGeometry relative="1" as="geometry" />
        </mxCell>
        <mxCell id="pqTl43sDfz-ucHtyQW6G-2" value="i = 1" style="rounded=1;whiteSpace=wrap;html=1;fontSize=12;glass=0;strokeWidth=1;shadow=0;" vertex="1" parent="1">
          <mxGeometry x="639" y="224" width="120" height="40" as="geometry" />
        </mxCell>
        <mxCell id="pqTl43sDfz-ucHtyQW6G-3" value="Yes" style="rounded=0;html=1;jettySize=auto;orthogonalLoop=1;fontSize=11;endArrow=block;endFill=0;endSize=8;strokeWidth=1;shadow=0;labelBackgroundColor=none;edgeStyle=orthogonalEdgeStyle;" edge="1" parent="1" source="pqTl43sDfz-ucHtyQW6G-5">
          <mxGeometry y="20" relative="1" as="geometry">
            <mxPoint as="offset" />
            <mxPoint x="699" y="434" as="targetPoint" />
          </mxGeometry>
        </mxCell>
        <mxCell id="pqTl43sDfz-ucHtyQW6G-4" value="No" style="edgeStyle=orthogonalEdgeStyle;rounded=0;html=1;jettySize=auto;orthogonalLoop=1;fontSize=11;endArrow=block;endFill=0;endSize=8;strokeWidth=1;shadow=0;labelBackgroundColor=none;entryX=1;entryY=0.5;entryDx=0;entryDy=0;" edge="1" parent="1" source="pqTl43sDfz-ucHtyQW6G-5" target="pqTl43sDfz-ucHtyQW6G-11">
          <mxGeometry y="10" relative="1" as="geometry">
            <mxPoint as="offset" />
            <mxPoint x="799" y="354" as="targetPoint" />
            <Array as="points">
              <mxPoint x="774" y="354" />
              <mxPoint x="774" y="355" />
              <mxPoint x="879" y="355" />
              <mxPoint x="879" y="564" />
            </Array>
          </mxGeometry>
        </mxCell>
        <mxCell id="pqTl43sDfz-ucHtyQW6G-5" value="i 가 momtong_length보다 작은가" style="rhombus;whiteSpace=wrap;html=1;shadow=0;fontFamily=Helvetica;fontSize=12;align=center;strokeWidth=1;spacing=6;spacingTop=-4;" vertex="1" parent="1">
          <mxGeometry x="649" y="314" width="100" height="80" as="geometry" />
        </mxCell>
        <mxCell id="pqTl43sDfz-ucHtyQW6G-6" style="edgeStyle=orthogonalEdgeStyle;rounded=0;orthogonalLoop=1;jettySize=auto;html=1;exitX=0.5;exitY=1;exitDx=0;exitDy=0;" edge="1" parent="1" source="pqTl43sDfz-ucHtyQW6G-7" target="pqTl43sDfz-ucHtyQW6G-2">
          <mxGeometry relative="1" as="geometry" />
        </mxCell>
        <mxCell id="pqTl43sDfz-ucHtyQW6G-7" value="시작" style="ellipse;whiteSpace=wrap;html=1;" vertex="1" parent="1">
          <mxGeometry x="664" y="154" width="70" height="40" as="geometry" />
        </mxCell>
        <mxCell id="pqTl43sDfz-ucHtyQW6G-8" style="edgeStyle=orthogonalEdgeStyle;rounded=0;orthogonalLoop=1;jettySize=auto;html=1;exitX=0;exitY=0.5;exitDx=0;exitDy=0;" edge="1" parent="1" source="pqTl43sDfz-ucHtyQW6G-9">
          <mxGeometry relative="1" as="geometry">
            <mxPoint x="699" y="294" as="targetPoint" />
            <Array as="points">
              <mxPoint x="569" y="464" />
              <mxPoint x="569" y="294" />
            </Array>
          </mxGeometry>
        </mxCell>
        <mxCell id="pqTl43sDfz-ucHtyQW6G-9" value="toping+momtong_shape+toping&lt;br&gt;&lt;br&gt;i에 1을 더한다&amp;nbsp;" style="rounded=0;whiteSpace=wrap;html=1;" vertex="1" parent="1">
          <mxGeometry x="589" y="434" width="220" height="60" as="geometry" />
        </mxCell>
        <mxCell id="pqTl43sDfz-ucHtyQW6G-10" style="edgeStyle=orthogonalEdgeStyle;rounded=0;orthogonalLoop=1;jettySize=auto;html=1;exitX=0.5;exitY=1;exitDx=0;exitDy=0;entryX=0.5;entryY=0;entryDx=0;entryDy=0;" edge="1" parent="1" source="pqTl43sDfz-ucHtyQW6G-11" target="pqTl43sDfz-ucHtyQW6G-14">
          <mxGeometry relative="1" as="geometry" />
        </mxCell>
        <mxCell id="pqTl43sDfz-ucHtyQW6G-11" value="a = 1" style="rounded=0;whiteSpace=wrap;html=1;" vertex="1" parent="1">
          <mxGeometry x="639" y="534" width="120" height="60" as="geometry" />
        </mxCell>
        <mxCell id="pqTl43sDfz-ucHtyQW6G-12" style="edgeStyle=orthogonalEdgeStyle;rounded=0;orthogonalLoop=1;jettySize=auto;html=1;exitX=0.5;exitY=1;exitDx=0;exitDy=0;entryX=0.5;entryY=0;entryDx=0;entryDy=0;" edge="1" parent="1" source="pqTl43sDfz-ucHtyQW6G-14" target="pqTl43sDfz-ucHtyQW6G-16">
          <mxGeometry relative="1" as="geometry" />
        </mxCell>
        <mxCell id="pqTl43sDfz-ucHtyQW6G-13" style="edgeStyle=orthogonalEdgeStyle;rounded=0;orthogonalLoop=1;jettySize=auto;html=1;exitX=1;exitY=0.5;exitDx=0;exitDy=0;entryX=1;entryY=0.5;entryDx=0;entryDy=0;" edge="1" parent="1" source="pqTl43sDfz-ucHtyQW6G-14" target="pqTl43sDfz-ucHtyQW6G-17">
          <mxGeometry relative="1" as="geometry">
            <Array as="points">
              <mxPoint x="879" y="654" />
              <mxPoint x="879" y="854" />
            </Array>
          </mxGeometry>
        </mxCell>
        <mxCell id="pqTl43sDfz-ucHtyQW6G-14" value="a 가 bar_length보다 작은가" style="rhombus;whiteSpace=wrap;html=1;" vertex="1" parent="1">
          <mxGeometry x="619" y="614" width="160" height="80" as="geometry" />
        </mxCell>
        <mxCell id="pqTl43sDfz-ucHtyQW6G-15" style="edgeStyle=orthogonalEdgeStyle;rounded=0;orthogonalLoop=1;jettySize=auto;html=1;exitX=0;exitY=0.5;exitDx=0;exitDy=0;" edge="1" parent="1" source="pqTl43sDfz-ucHtyQW6G-16">
          <mxGeometry relative="1" as="geometry">
            <mxPoint x="699" y="604" as="targetPoint" />
            <Array as="points">
              <mxPoint x="569" y="754" />
              <mxPoint x="569" y="604" />
            </Array>
          </mxGeometry>
        </mxCell>
        <mxCell id="pqTl43sDfz-ucHtyQW6G-16" value="&quot; |&amp;nbsp; | &quot; 출력&lt;br&gt;&lt;br&gt;a += 1" style="rounded=0;whiteSpace=wrap;html=1;" vertex="1" parent="1">
          <mxGeometry x="589" y="724" width="220" height="60" as="geometry" />
        </mxCell>
        <mxCell id="pqTl43sDfz-ucHtyQW6G-17" value="꿑" style="ellipse;whiteSpace=wrap;html=1;" vertex="1" parent="1">
          <mxGeometry x="639" y="814" width="120" height="80" as="geometry" />
        </mxCell>
      </root>
    </mxGraphModel>
  </diagram>
  <diagram name="페이지-2" id="6xeNdnUFfxTs2rafyF68">
    <mxGraphModel dx="1434" dy="765" grid="1" gridSize="10" guides="1" tooltips="1" connect="1" arrows="1" fold="1" page="1" pageScale="1" pageWidth="827" pageHeight="1169" math="0" shadow="0">
      <root>
        <mxCell id="0" />
        <mxCell id="1" parent="0" />
        <mxCell id="EvVvTQKlcNiJk8JYvaPj-1" value="Start" style="ellipse;whiteSpace=wrap;html=1;" vertex="1" parent="1">
          <mxGeometry x="414" y="60" width="60" height="40" as="geometry" />
        </mxCell>
        <mxCell id="EvVvTQKlcNiJk8JYvaPj-2" value="" style="endArrow=classic;html=1;rounded=0;exitX=0.5;exitY=1;exitDx=0;exitDy=0;entryX=0.5;entryY=0;entryDx=0;entryDy=0;" edge="1" parent="1" source="EvVvTQKlcNiJk8JYvaPj-1" target="EvVvTQKlcNiJk8JYvaPj-3">
          <mxGeometry width="50" height="50" relative="1" as="geometry">
            <mxPoint x="390" y="420" as="sourcePoint" />
            <mxPoint x="444" y="150" as="targetPoint" />
          </mxGeometry>
        </mxCell>
        <mxCell id="EvVvTQKlcNiJk8JYvaPj-3" value="1~45 사이의 숫자를 랜덤으로 선택한다" style="rounded=0;whiteSpace=wrap;html=1;" vertex="1" parent="1">
          <mxGeometry x="300" y="130" width="290" height="60" as="geometry" />
        </mxCell>
        <mxCell id="EvVvTQKlcNiJk8JYvaPj-5" value="" style="endArrow=classic;html=1;rounded=0;entryX=0.5;entryY=0;entryDx=0;entryDy=0;" edge="1" parent="1" source="EvVvTQKlcNiJk8JYvaPj-3" target="EvVvTQKlcNiJk8JYvaPj-6">
          <mxGeometry width="50" height="50" relative="1" as="geometry">
            <mxPoint x="445" y="240" as="sourcePoint" />
            <mxPoint x="445" y="260.71067811865476" as="targetPoint" />
          </mxGeometry>
        </mxCell>
        <mxCell id="EvVvTQKlcNiJk8JYvaPj-6" value="선택한 수를 Set에 넣는다" style="rounded=0;whiteSpace=wrap;html=1;" vertex="1" parent="1">
          <mxGeometry x="310" y="230" width="270" height="60" as="geometry" />
        </mxCell>
        <mxCell id="EvVvTQKlcNiJk8JYvaPj-8" value="" style="endArrow=classic;html=1;rounded=0;exitX=0.5;exitY=1;exitDx=0;exitDy=0;entryX=0.5;entryY=0;entryDx=0;entryDy=0;" edge="1" parent="1" source="EvVvTQKlcNiJk8JYvaPj-6" target="EvVvTQKlcNiJk8JYvaPj-9">
          <mxGeometry width="50" height="50" relative="1" as="geometry">
            <mxPoint x="455" y="200" as="sourcePoint" />
            <mxPoint x="445" y="330" as="targetPoint" />
          </mxGeometry>
        </mxCell>
        <mxCell id="EvVvTQKlcNiJk8JYvaPj-9" value="카운트 하였을 때 갯수가 6개인가?" style="rounded=0;whiteSpace=wrap;html=1;" vertex="1" parent="1">
          <mxGeometry x="309" y="330" width="270" height="60" as="geometry" />
        </mxCell>
        <mxCell id="EvVvTQKlcNiJk8JYvaPj-11" value="" style="endArrow=classic;html=1;rounded=0;exitX=0;exitY=0.5;exitDx=0;exitDy=0;entryX=0;entryY=0.5;entryDx=0;entryDy=0;" edge="1" parent="1" source="EvVvTQKlcNiJk8JYvaPj-9" target="EvVvTQKlcNiJk8JYvaPj-3">
          <mxGeometry width="50" height="50" relative="1" as="geometry">
            <mxPoint x="390" y="420" as="sourcePoint" />
            <mxPoint x="210" y="160" as="targetPoint" />
            <Array as="points">
              <mxPoint x="210" y="360" />
              <mxPoint x="210" y="160" />
            </Array>
          </mxGeometry>
        </mxCell>
        <mxCell id="EvVvTQKlcNiJk8JYvaPj-12" value="아니요" style="text;html=1;strokeColor=none;fillColor=none;align=center;verticalAlign=middle;whiteSpace=wrap;rounded=0;" vertex="1" parent="1">
          <mxGeometry x="150" y="240" width="60" height="30" as="geometry" />
        </mxCell>
        <mxCell id="EvVvTQKlcNiJk8JYvaPj-13" value="예" style="endArrow=classic;html=1;rounded=0;exitX=0.5;exitY=1;exitDx=0;exitDy=0;entryX=0.5;entryY=0;entryDx=0;entryDy=0;" edge="1" parent="1" source="EvVvTQKlcNiJk8JYvaPj-9" target="EvVvTQKlcNiJk8JYvaPj-15">
          <mxGeometry width="50" height="50" relative="1" as="geometry">
            <mxPoint x="480" y="430" as="sourcePoint" />
            <mxPoint x="445" y="420" as="targetPoint" />
          </mxGeometry>
        </mxCell>
        <mxCell id="EvVvTQKlcNiJk8JYvaPj-15" value="반환한다" style="ellipse;whiteSpace=wrap;html=1;" vertex="1" parent="1">
          <mxGeometry x="385" y="440" width="120" height="80" as="geometry" />
        </mxCell>
      </root>
    </mxGraphModel>
  </diagram>
</mxfile>
